<?xml version="1.0" encoding="UTF-8" standalone="no"?>
<svg
    xmlns:dc="http://purl.org/dc/elements/1.1/"
    xmlns:cc="http://creativecommons.org/ns#"
    xmlns:rdf="http://www.w3.org/1999/02/22-rdf-syntax-ns#"
    xmlns:svg="http://www.w3.org/2000/svg"
    xmlns="http://www.w3.org/2000/svg"
    viewBox="0 0 133.33107 133.2692"
    height="133.2692"
    width="133.33107"
    xml:space="preserve"
    id="svg2"
    version="1.1">
    <metadata
      id="metadata8">
        <rdf:RDF>
            <cc:Work
        rdf:about="">
                <dc:format>image/svg+xml</dc:format>
                <dc:type
          rdf:resource="http://purl.org/dc/dcmitype/StillImage" />
            </cc:Work>
        </rdf:RDF>
    </metadata>
    <defs
            id="defs6">
        <clipPath
          id="clipPath18"
            clipPathUnits="userSpaceOnUse">
            <path
              id="path16"
                d="M 0,99.952 H 99.998 V 0 H 0 Z" />
        </clipPath>
        <linearGradient
              id="linearGradient40"
            spreadMethod="pad"
            gradientTransform="matrix(37.720627,-37.720627,-37.720627,-37.720627,37.13089,35.564732)"
            gradientUnits="userSpaceOnUse"
            y2="0"
            x2="1"
            y1="0"
            x1="0">
            <stop
              id="stop36"
                offset="0"
                style="stop-opacity:1;stop-color:#008ddf" />
            <stop
                id="stop38"
                offset="1"
                style="stop-opacity:1;stop-color:#78dce8" />
        </linearGradient>
        <clipPath
              id="clipPath50"
            clipPathUnits="userSpaceOnUse">
            <path
              id="path48"
                d="M 0,99.952 H 99.998 V 0 H 0 Z" />
        </clipPath>
    </defs>
    <g
            transform="matrix(1.3333333,0,0,-1.3333333,0,133.2692)"
        id="g10">
        <g
          id="g12">
            <g
              clip-path="url(#clipPath18)"
                id="g14">
                <g
                  transform="translate(0,6.9158)"
                    id="g20">
                    <path
                      id="path22"
                        style="fill:#78dce8;fill-opacity:1;fill-rule:nonzero;stroke:none"
                        d="m 0,0 v 86.321 c 0,2.23 1.154,3.746 2.793,5 0.901,0.689 2.922,1.694 4.221,1.694 h 49.639 c 12.614,0 -0.966,0.047 0,0 12.864,-0.621 27.114,-10.121 34.001,-20.175 3.724,-5.436 6.679,-11.359 8.312,-17.743 0.413,-1.616 0.791,-3.259 0.903,-4.906 0.181,-2.667 0.166,-5.007 -0.009,-6.659 -0.226,-2.124 -0.965,-4.262 -1.534,-5.679 -2.324,-5.79 -5.439,-11.048 -9.86,-15.415 -3.289,-3.25 -7.265,-5.8 -11.742,-6.956 -3.08,-0.795 -6.255,-0.998 -9.518,-0.613 -3.535,0.417 -6.793,1.558 -9.681,3.667 -1.5,1.095 -2.821,2.375 -3.865,3.926 0.088,0.04 5.218,3.382 7.69,5.022 2.941,1.952 5.877,3.913 8.809,5.88 0.144,0.096 0.319,0.296 0.313,0.441 -0.021,0.526 -0.064,1.061 -0.187,1.571 -0.692,2.875 -2.407,5.034 -4.85,6.606 -2.648,1.705 -5.527,2.328 -8.625,1.469 -1.904,-0.528 -3.485,-1.6 -4.841,-3.019 -0.069,-0.063 -0.138,-0.126 -0.207,-0.189 l 0.021,0.005 C 51.727,40.222 51.66,40.208 51.616,40.168 50.629,39.25 49.643,38.331 48.66,37.409 46.293,35.187 43.931,32.962 41.563,30.742 37.994,27.395 34.421,24.051 30.851,20.705 28.556,18.554 26.264,16.399 23.969,14.248 19.877,10.412 15.784,6.577 11.69,2.743 9.783,0.957 7.869,-0.821 5.966,-2.612 5.455,-3.093 4.979,-3.553 4.501,-4.018 4.162,-4.347 3.714,-5.21 3.275,-5.206 2.406,-4.418 1.841,-3.861 1.33,-3.189 0.719,-2.388 0,-1.106 0,0" />
                </g>
            </g>
        </g>
        <g
                  id="g24">
            <g
              id="g26">
                <g
                  id="g32">
                    <g
                      id="g34">
                        <path
                          id="path42"
                            style="fill:url(#linearGradient40);stroke:none"
                            d="M 51.617,47.083 C 50.63,46.165 49.642,45.247 48.659,44.324 v 0 c -2.366,-2.221 -4.728,-4.446 -7.096,-6.666 v 0 C 37.993,34.311 34.421,30.967 30.851,27.621 v 0 C 28.556,25.47 26.265,23.314 23.97,21.163 v 0 C 19.877,17.328 15.784,13.493 11.69,9.659 v 0 C 9.783,7.873 7.869,6.095 5.966,4.304 v 0 C 5.059,3.45 4.171,2.575 3.275,1.709 v 0 C 3.597,1.48 3.902,1.22 4.244,1.025 v 0 C 5.247,0.451 6.263,0 7.48,0 v 0 h 0.008 c 17.338,0.021 34.675,0.014 52.014,0.018 v 0 c 0.604,0.001 1.206,0.047 1.803,0.135 v 0 c 2.082,0.306 4.171,0.58 6.236,0.972 v 0 c 3.86,0.734 7.587,1.91 11.142,3.596 v 0 c 3.228,1.53 6.2,3.455 8.849,5.855 v 0 c 1.717,1.555 3.233,3.295 4.566,5.192 v 0 c 3.584,5.099 5.602,10.834 6.808,16.888 v 0 c 0.303,1.522 0.505,3.065 0.704,4.604 v 0 c 0.14,1.077 0.195,2.165 0.288,3.249 v 0 c -0.653,-1.48 -1.22,-3.007 -1.973,-4.434 v 0 C 94.445,29.478 89.142,24.879 82.297,22.007 v 0 C 79.584,20.869 76.786,20.012 73.868,19.63 v 0 c -5.517,-0.723 -10.711,0.107 -15.375,3.348 v 0 c -4.483,3.116 -7.262,7.377 -8.531,12.657 v 0 c -0.449,1.869 -0.675,3.756 -0.493,5.677 v 0 c 0.028,0.303 0.198,1.367 0.382,1.875 v 0 c 0.431,1.336 0.454,1.601 1.11,2.709 v 0 c 0.276,0.466 1.347,1.633 1.622,2.055 v 0 C 52.527,47.925 51.66,47.124 51.617,47.083" />
                    </g>
                </g>
            </g>
        </g>
        <g
                    id="g44">
            <g
              clip-path="url(#clipPath50)"
                id="g46">
                <g
                  transform="translate(49.6415,41.7807)"
                    id="g52">
                    <path
                      id="path54"
                        style="fill:#517bd6;fill-opacity:1;fill-rule:nonzero;stroke:none"
                        d="m 0,0 c 0.014,0.285 0.05,0.574 0.102,0.854 0.303,1.608 0.598,2.207 1.217,3.261 0.255,0.434 0.548,0.846 0.823,1.268 0,0 -0.022,-0.005 -0.022,-0.005 0.069,0.063 0.138,0.126 0.208,0.189 1.356,1.419 2.936,2.491 4.841,3.019 3.098,0.859 5.976,0.236 8.625,-1.469 2.442,-1.572 4.158,-3.731 4.85,-6.605 0.123,-0.511 0.165,-1.046 0.186,-1.572 0.006,-0.145 -0.168,-0.344 -0.313,-0.441 -2.931,-1.967 -5.867,-3.928 -8.809,-5.88 -1.962,-1.302 -5.656,-3.755 -7.689,-5.022 -1.46,2.373 0,0 -1.13,1.792 C 0.992,-7.364 -0.191,-3.896 0,0" />
                </g>
                <g
                      transform="translate(51.9691,47.3474)"
                    id="g56">
                    <path
                      id="path58"
                        style="fill:#e52621;fill-opacity:1;fill-rule:nonzero;stroke:none"
                        d="M 0,0 C -0.069,-0.063 -0.138,-0.126 -0.207,-0.188 -0.138,-0.126 -0.069,-0.063 0,0" />
                </g>
            </g>
        </g>
    </g>
</svg>
